HIERARCHY
ROOT Hips
{
  OFFSET 363.916 89.4436 202.859
  CHANNELS 6 Xposition Yposition Zposition Zrotation Xrotation Yrotation
  JOINT RightUpLeg
  {
    OFFSET -9.22681 -1.41939 0.059526
    CHANNELS 3 Zrotation Xrotation Yrotation
    JOINT RightLeg
    {
      OFFSET 0.076897 -41.8891 0.179098
      CHANNELS 3 Zrotation Xrotation Yrotation
      JOINT RightFoot
      {
        OFFSET -0.0130714 -43.0092 0.527065
        CHANNELS 3 Zrotation Xrotation Yrotation
        End Site
        {
          OFFSET 0 -7.69 17.5
        }
      }
    }
  }
  JOINT LeftUpLeg
  {
    OFFSET 9.19333 -1.7604 -0.077889
    CHANNELS 3 Zrotation Xrotation Yrotation
    JOINT LeftLeg
    {
      OFFSET -0.0291634 -41.859 -0.15197
      CHANNELS 3 Zrotation Xrotation Yrotation
      JOINT LeftFoot
      {
        OFFSET 0.141288 -40.5593 0.458407
        CHANNELS 3 Zrotation Xrotation Yrotation
        End Site
        {
          OFFSET 0 -7.69 17.5
        }
      }
    }
  }
  JOINT Spine
  {
    OFFSET 0.215607 14.2961 0.04713
    CHANNELS 3 Zrotation Xrotation Yrotation
    JOINT Spine1
    {
      OFFSET 0.127345 9.70675 0.00151561
      CHANNELS 3 Zrotation Xrotation Yrotation
      JOINT Spine2
      {
        OFFSET 0.0493166 10.1169 -0.00299987
        CHANNELS 3 Zrotation Xrotation Yrotation
        JOINT Spine3
        {
          OFFSET 0.0599611 9.70888 0.0197622
          CHANNELS 3 Zrotation Xrotation Yrotation
          JOINT Neck
          {
            OFFSET 0.305156 10.372 0.0704915
            CHANNELS 3 Zrotation Xrotation Yrotation
            JOINT Head
            {
              OFFSET 0.288394 9.47974 0.0406202
              CHANNELS 3 Zrotation Xrotation Yrotation
              End Site
              {
                OFFSET 0 15.95 0
              }
            }
          }
          JOINT RightShoulder
          {
            OFFSET -3.14873 6.92098 0.0285763
            CHANNELS 3 Zrotation Xrotation Yrotation
            JOINT RightArm
            {
              OFFSET -12.7049 -0.00288304 0.0369593
              CHANNELS 3 Zrotation Xrotation Yrotation
              JOINT RightForeArm
              {
                OFFSET -26.4954 -0.160471 0.0134548
                CHANNELS 3 Zrotation Xrotation Yrotation
                JOINT RightHand
                {
                  OFFSET -26.0026 -0.0211725 -0.0218708
                  CHANNELS 3 Zrotation Xrotation Yrotation
                  JOINT RightHandThumb1
                  {
                    OFFSET -2.48905 0.190105 3.12053
                    CHANNELS 3 Zrotation Xrotation Yrotation
                    JOINT RightHandThumb2
                    {
                      OFFSET -3.68274 0 0
                      CHANNELS 3 Zrotation Xrotation Yrotation
                      JOINT RightHandThumb3
                      {
                        OFFSET -2.55832 0 0
                        CHANNELS 3 Zrotation Xrotation Yrotation
                        End Site
                        {
                          OFFSET -2.194 0 0
                        }
                      }
                    }
                  }
                  JOINT RightInHandIndex
                  {
                    OFFSET -3.22368 0.508421 1.97842
                    CHANNELS 3 Zrotation Xrotation Yrotation
                    JOINT RightHandIndex1
                    {
                      OFFSET -5.21684 -0.091368 0.999158
                      CHANNELS 3 Zrotation Xrotation Yrotation
                      JOINT RightHandIndex2
                      {
                        OFFSET -3.61937 0 0
                        CHANNELS 3 Zrotation Xrotation Yrotation
                        JOINT RightHandIndex3
                        {
                          OFFSET -2.0521 0 0
                          CHANNELS 3 Zrotation Xrotation Yrotation
                          End Site
                          {
                            OFFSET -1.805 0 0
                          }
                        }
                      }
                    }
                  }
                  JOINT RightInHandMiddle
                  {
                    OFFSET -3.38211 0.517263 0.756737
                    CHANNELS 3 Zrotation Xrotation Yrotation
                    JOINT RightHandMiddle1
                    {
                      OFFSET -5.17411 -0.084 0.313895
                      CHANNELS 3 Zrotation Xrotation Yrotation
                      JOINT RightHandMiddle2
                      {
                        OFFSET -3.94947 0 0
                        CHANNELS 3 Zrotation Xrotation Yrotation
                        JOINT RightHandMiddle3
                        {
                          OFFSET -2.47579 0 0
                          CHANNELS 3 Zrotation Xrotation Yrotation
                          End Site
                          {
                            OFFSET -1.975 0 0
                          }
                        }
                      }
                    }
                  }
                  JOINT RightInHandRing
                  {
                    OFFSET -3.36516 0.537895 -0.128947
                    CHANNELS 3 Zrotation Xrotation Yrotation
                    JOINT RightHandRing1
                    {
                      OFFSET -4.63474 -0.022105 -0.478947
                      CHANNELS 3 Zrotation Xrotation Yrotation
                      JOINT RightHandRing2
                      {
                        OFFSET -3.44238 0 0
                        CHANNELS 3 Zrotation Xrotation Yrotation
                        JOINT RightHandRing3
                        {
                          OFFSET -2.3881 0 0
                          CHANNELS 3 Zrotation Xrotation Yrotation
                          End Site
                          {
                            OFFSET -1.857 0 0
                          }
                        }
                      }
                    }
                  }
                  JOINT RightInHandPinky
                  {
                    OFFSET -3.16105 0.469368 -1.20179
                    CHANNELS 3 Zrotation Xrotation Yrotation
                    JOINT RightHandPinky1
                    {
                      OFFSET -4.14105 -0.022105 -1.09053
                      CHANNELS 3 Zrotation Xrotation Yrotation
                      JOINT RightHandPinky2
                      {
                        OFFSET -2.75653 0 0
                        CHANNELS 3 Zrotation Xrotation Yrotation
                        JOINT RightHandPinky3
                        {
                          OFFSET -1.74189 0 0
                          CHANNELS 3 Zrotation Xrotation Yrotation
                          End Site
                          {
                            OFFSET -1.645 0 0
                          }
                        }
                      }
                    }
                  }
                }
              }
            }
          }
          JOINT LeftShoulder
          {
            OFFSET 3.26342 6.92519 -0.0174379
            CHANNELS 3 Zrotation Xrotation Yrotation
            JOINT LeftArm
            {
              OFFSET 12.8742 -0.0269705 -0.0666419
              CHANNELS 3 Zrotation Xrotation Yrotation
              JOINT LeftForeArm
              {
                OFFSET 26.5114 0.000826062 -0.052783
                CHANNELS 3 Zrotation Xrotation Yrotation
                JOINT LeftHand
                {
                  OFFSET 25.9941 -0.0689373 0.00603348
                  CHANNELS 3 Zrotation Xrotation Yrotation
                  JOINT LeftHandThumb1
                  {
                    OFFSET 2.48905 0.190105 3.12053
                    CHANNELS 3 Zrotation Xrotation Yrotation
                    JOINT LeftHandThumb2
                    {
                      OFFSET 3.68274 0 0
                      CHANNELS 3 Zrotation Xrotation Yrotation
                      JOINT LeftHandThumb3
                      {
                        OFFSET 2.55832 0 0
                        CHANNELS 3 Zrotation Xrotation Yrotation
                        End Site
                        {
                          OFFSET 2.194 0 0
                        }
                      }
                    }
                  }
                  JOINT LeftInHandIndex
                  {
                    OFFSET 3.22368 0.508421 1.97842
                    CHANNELS 3 Zrotation Xrotation Yrotation
                    JOINT LeftHandIndex1
                    {
                      OFFSET 5.21684 -0.091368 0.999158
                      CHANNELS 3 Zrotation Xrotation Yrotation
                      JOINT LeftHandIndex2
                      {
                        OFFSET 3.61937 0 0
                        CHANNELS 3 Zrotation Xrotation Yrotation
                        JOINT LeftHandIndex3
                        {
                          OFFSET 2.0521 0 0
                          CHANNELS 3 Zrotation Xrotation Yrotation
                          End Site
                          {
                            OFFSET 1.805 0 0
                          }
                        }
                      }
                    }
                  }
                  JOINT LeftInHandMiddle
                  {
                    OFFSET 3.38211 0.517263 0.756737
                    CHANNELS 3 Zrotation Xrotation Yrotation
                    JOINT LeftHandMiddle1
                    {
                      OFFSET 5.17411 -0.084 0.313895
                      CHANNELS 3 Zrotation Xrotation Yrotation
                      JOINT LeftHandMiddle2
                      {
                        OFFSET 3.94947 0 0
                        CHANNELS 3 Zrotation Xrotation Yrotation
                        JOINT LeftHandMiddle3
                        {
                          OFFSET 2.47579 0 0
                          CHANNELS 3 Zrotation Xrotation Yrotation
                          End Site
                          {
                            OFFSET 1.975 0 0
                          }
                        }
                      }
                    }
                  }
                  JOINT LeftInHandRing
                  {
                    OFFSET 3.36516 0.537895 -0.128947
                    CHANNELS 3 Zrotation Xrotation Yrotation
                    JOINT LeftHandRing1
                    {
                      OFFSET 4.63474 -0.022105 -0.478947
                      CHANNELS 3 Zrotation Xrotation Yrotation
                      JOINT LeftHandRing2
                      {
                        OFFSET 3.44238 0 0
                        CHANNELS 3 Zrotation Xrotation Yrotation
                        JOINT LeftHandRing3
                        {
                          OFFSET 2.3881 0 0
                          CHANNELS 3 Zrotation Xrotation Yrotation
                          End Site
                          {
                            OFFSET 1.857 0 0
                          }
                        }
                      }
                    }
                  }
                  JOINT LeftInHandPinky
                  {
                    OFFSET 3.16105 0.469368 -1.20179
                    CHANNELS 3 Zrotation Xrotation Yrotation
                    JOINT LeftHandPinky1
                    {
                      OFFSET 4.14105 -0.022105 -1.09053
                      CHANNELS 3 Zrotation Xrotation Yrotation
                      JOINT LeftHandPinky2
                      {
                        OFFSET 2.75653 0 0
                        CHANNELS 3 Zrotation Xrotation Yrotation
                        JOINT LeftHandPinky3
                        {
                          OFFSET 1.74189 0 0
                          CHANNELS 3 Zrotation Xrotation Yrotation
                          End Site
                          {
                            OFFSET 1.645 0 0
                          }
                        }
                      }
                    }
                  }
                }
              }
            }
          }
        }
      }
    }
  }
}
MOTION
Frames: 3
Frame Time: 0.00833333
4.500121290018331024e+02 1.187164959747754114e-02 1.307725390533627519e-02 -1.029174333281743670e-03 1.694921734605239066e-02 4.582007225296395869e-02 -2.542356219327570124e-02 -3.126381454576156183e-02 -5.412485035689298257e-02 -6.649388971291083153e-03 2.034736741172648439e-02 -5.397158166008631658e-02 2.214439126502382171e-02 9.699636591571867208e-03 4.969496695023180310e-02 7.854635281801420092e-04 -1.705569865886434264e-02 -1.147411958219500400e-01 -1.815410299166052982e-02 -4.279732922266307749e-02 1.358328525037279244e-02 -2.457106360541015666e-02 4.933871973035382219e-02 2.159293849569190321e-02 1.786672160620204203e-02 1.119181956478935112e-02 -3.087117048964619498e-02 3.488827963463561003e-03 3.496557291934146092e-03 -8.573128197499580230e-03 6.398638254425170063e-03 6.068892432142046316e-03 -1.442782619414527748e-02 -5.242969646975604919e-04 1.588951430467710048e-04 -3.881009128803871691e-04 -2.248968361502312521e-03 1.055382293126558724e-03 -1.109778931156607876e-02 -1.239539831543012491e-02 2.359439501761663796e-02 1.732658666449587298e-02 1.614727177670863267e-02 6.829279895299411596e-03 -6.528180759445541270e-02 -4.586863705372928868e-02 -7.208546622718810248e-02 1.629033340930563234e-01 4.728810855226407428e-01 1.136766233339444737e-01 -3.849657330334673166e-01 3.320160183399682025e-02 4.846485792347370869e-01 3.240593957423237859e-02 0.000000000000000000e+00 0.000000000000000000e+00 0.000000000000000000e+00 -1.764181657083384216e-16 -7.262925133147498959e-16 0.000000000000000000e+00 5.874533848289058243e-16 1.009967980525267461e-15 0.000000000000000000e+00 2.241295706179966248e-16 -9.392409119512704122e-16 -7.729170385491863703e-16 0.000000000000000000e+00 0.000000000000000000e+00 0.000000000000000000e+00 0.000000000000000000e+00 2.419201103164642473e-16 2.804870911223493675e-16 0.000000000000000000e+00 6.233619580066863246e-16 1.057145862275201449e-15 2.241295706179966248e-16 -9.392409119512704122e-16 -7.729170385491863703e-16 0.000000000000000000e+00 3.378735299958010523e-16 4.246557090025719778e-16 0.000000000000000000e+00 -6.874579562776509362e-17 2.892752114940199100e-17 0.000000000000000000e+00 1.144054107954681649e-16 5.188960941663813199e-16 2.241295706179966248e-16 -9.392409119512704122e-16 -7.729170385491863703e-16 0.000000000000000000e+00 0.000000000000000000e+00 0.000000000000000000e+00 0.000000000000000000e+00 1.923337421450607408e-16 8.177848045749468256e-16 0.000000000000000000e+00 -3.761728639761919451e-16 4.587724085255232379e-16 2.241295706179966248e-16 -9.392409119512704122e-16 -7.729170385491863703e-16 0.000000000000000000e+00 0.000000000000000000e+00 0.000000000000000000e+00 0.000000000000000000e+00 -3.747373228192218247e-16 7.358968701113469853e-16 0.000000000000000000e+00 6.858947302122997506e-16 -1.442704019937099111e-16 -1.198217400127769422e-01 -5.592542251916929330e-02 -6.842388587931545751e-02 1.012658130334742751e-01 1.279229933552542275e-01 -1.722305920718680550e-01 -4.898543028705257263e-02 1.366199574574678000e-01 2.099328413186514197e-01 4.368716299065404651e-02 -6.350616329749106392e-02 -6.384106696052774255e-02 0.000000000000000000e+00 0.000000000000000000e+00 0.000000000000000000e+00 7.722056798145316697e-16 3.796059410524676620e-16 0.000000000000000000e+00 8.552523246521635369e-16 2.252256838607115217e-15 0.000000000000000000e+00 7.372072974464006444e-16 3.655019648941915306e-16 -1.291232829631360530e-15 0.000000000000000000e+00 0.000000000000000000e+00 0.000000000000000000e+00 0.000000000000000000e+00 3.248876743326696394e-16 -7.642128090134722793e-16 0.000000000000000000e+00 -3.967973245025899164e-16 -4.663627138885032216e-16 7.372072974464006444e-16 3.655019648941915306e-16 -1.291232829631360530e-15 0.000000000000000000e+00 6.868103855857676214e-16 -5.747473220482955932e-16 0.000000000000000000e+00 2.645293781289269443e-16 2.005423474698835064e-16 0.000000000000000000e+00 -4.016438788579620208e-16 3.354668335085268511e-16 7.372072974464006444e-16 3.655019648941915306e-16 -1.291232829631360530e-15 0.000000000000000000e+00 0.000000000000000000e+00 0.000000000000000000e+00 0.000000000000000000e+00 1.759411762477207496e-17 -1.320788150498100432e-16 0.000000000000000000e+00 -4.992258752177581325e-16 3.599309545388124781e-16 7.372072974464006444e-16 3.655019648941915306e-16 -1.291232829631360530e-15 0.000000000000000000e+00 0.000000000000000000e+00 0.000000000000000000e+00 0.000000000000000000e+00 1.574837566184833248e-16 -2.926707147758816096e-16 0.000000000000000000e+00 5.064413141512436215e-17 3.109653678900362491e-16
4.500082750689617228e+02 1.025945793747229905e-02 1.547429812849388311e-02 6.742395391700200906e-03 4.936528168776133617e-03 1.368424477669067350e-02 1.485695802290594621e-02 -2.212970226351908959e-02 4.088587443058934456e-02 -5.521177579566751738e-03 4.286509108060408690e-02 -9.319200319063908333e-02 2.122475879895419776e-02 1.222568750717805894e-03 5.201214797554690183e-02 4.550080049547734068e-02 9.106821741008314791e-03 -1.457993262008677737e-01 -1.121993356317687734e-01 -7.599131709743336960e-02 8.583860405558296769e-02 4.173962976474925035e-03 6.472376372362285968e-02 3.317476948823644411e-02 2.240679067290082468e-02 9.915491244682174063e-03 -1.932888100577288479e-02 3.830604611358746220e-03 3.305030464659450707e-03 -3.549239371340408115e-03 7.832994061946008460e-03 5.714653222299734270e-03 -6.215136523038147960e-03 -8.659930419659128556e-04 4.909735708948942011e-04 -5.664636302122190133e-07 -1.325517996041078190e-03 3.149309175613494542e-03 -3.360938729177032069e-02 -2.198376982611264380e-02 3.301543374296772582e-02 3.456825193129491741e-02 -5.346573181753532661e-04 1.554842618640751503e-02 -5.277220654092971280e-02 -4.563774833464075142e-02 -7.916495421575497904e-02 3.741290310325176560e-02 3.897110723362759988e-01 1.718971334518792637e-01 -2.792321137924901886e-01 4.311858797098117035e-02 2.713909314061658251e-01 6.366857049497061383e-02 0.000000000000000000e+00 0.000000000000000000e+00 0.000000000000000000e+00 5.432331078417860039e-16 -1.122827248206500324e-15 0.000000000000000000e+00 1.096956325282734899e-15 8.375261299842236004e-16 0.000000000000000000e+00 -3.026523451072933160e-15 -5.271457793318912832e-16 -6.429446388312930076e-16 0.000000000000000000e+00 0.000000000000000000e+00 0.000000000000000000e+00 0.000000000000000000e+00 -2.054484897827796716e-17 1.375147500835790958e-16 0.000000000000000000e+00 6.367711455456523095e-16 1.032022333860645757e-15 -3.026523451072933160e-15 -5.271457793318912832e-16 -6.429446388312930076e-16 0.000000000000000000e+00 3.518218278092626449e-16 -7.244710262760553894e-17 0.000000000000000000e+00 -1.472869348644883227e-16 -1.435577669389611552e-16 0.000000000000000000e+00 -1.542902074239226247e-16 1.911198889455429967e-16 -3.026523451072933160e-15 -5.271457793318912832e-16 -6.429446388312930076e-16 0.000000000000000000e+00 0.000000000000000000e+00 0.000000000000000000e+00 0.000000000000000000e+00 4.681601895368702781e-16 2.203340245711960308e-16 0.000000000000000000e+00 -5.479678805517623457e-16 -4.641465345404493669e-16 -3.026523451072933160e-15 -5.271457793318912832e-16 -6.429446388312930076e-16 0.000000000000000000e+00 0.000000000000000000e+00 0.000000000000000000e+00 0.000000000000000000e+00 -5.264902956553348059e-16 6.224805170636333223e-16 0.000000000000000000e+00 -5.134908183029328412e-16 -4.084448567935764396e-16 -9.114099620842429361e-02 -8.412031364856852045e-02 -6.085279688240601698e-02 2.322083841319957237e-02 1.294869100885379376e-01 -1.229767187401781259e-01 -4.332954158238722098e-02 1.111173660843398914e-01 1.564085381231760385e-01 2.057954413831736273e-02 -5.306178586391609858e-02 -2.744463164997114346e-02 0.000000000000000000e+00 0.000000000000000000e+00 0.000000000000000000e+00 6.071735182853765275e-16 -4.087268380969055222e-16 0.000000000000000000e+00 5.192423796352271655e-16 9.213744473454593966e-16 0.000000000000000000e+00 1.086091893051805558e-15 9.022109573350645148e-16 -1.853982504317417735e-15 0.000000000000000000e+00 0.000000000000000000e+00 0.000000000000000000e+00 0.000000000000000000e+00 1.864190556638589208e-16 -5.842129982511559511e-16 0.000000000000000000e+00 -9.060452715640087102e-16 -2.959332437842393404e-16 1.086091893051805558e-15 9.022109573350645148e-16 -1.853982504317417735e-15 0.000000000000000000e+00 -3.483737718141344903e-16 -4.391030048023041377e-16 0.000000000000000000e+00 3.092291019943256759e-16 4.949235692558372473e-16 0.000000000000000000e+00 -3.848460022794804043e-16 1.146535283776751112e-16 1.086091893051805558e-15 9.022109573350645148e-16 -1.853982504317417735e-15 0.000000000000000000e+00 0.000000000000000000e+00 0.000000000000000000e+00 0.000000000000000000e+00 -7.294483585891095998e-16 2.881175289256578637e-16 0.000000000000000000e+00 -5.322933535713506202e-16 3.838584704998217458e-16 1.086091893051805558e-15 9.022109573350645148e-16 -1.853982504317417735e-15 0.000000000000000000e+00 0.000000000000000000e+00 0.000000000000000000e+00 0.000000000000000000e+00 4.598970097153138891e-16 -7.086373202993248917e-16 0.000000000000000000e+00 1.676239938360307936e-18 2.363480089944893907e-16
4.500032024945927560e+02 6.029730836295816958e-03 1.218979704340688794e-02 1.219038170018374445e-02 -8.018823415759464626e-03 -1.796316233825818315e-02 4.719116769175810133e-02 -8.707418927106211001e-03 1.283349553682366362e-01 -3.170091807606323711e-03 5.631658791477676951e-02 -1.140541881631089577e-01 1.704914729468276491e-02 -9.101881246570894812e-03 3.858226405377677970e-02 7.291315594074242179e-02 3.234074608275961521e-02 -1.377781597378301970e-01 -1.684123003749222747e-01 -8.090635516524889714e-02 1.254761335998276772e-01 2.537117960777086900e-02 5.402385170281142485e-02 3.754562434098399071e-02 1.968735378001573375e-02 5.538945779155726029e-03 -5.134974653787561898e-03 2.747990371481127611e-03 2.120730260437891229e-03 1.501143305031088200e-03 6.585776709834100136e-03 3.656825722837141104e-03 2.097542099163906236e-03 -9.295382508345616072e-04 7.757006730909579055e-04 2.905844155643491893e-04 9.193934600403177006e-05 3.773404549496342693e-03 -5.313239578846018496e-02 -2.588728361529230373e-02 3.280070618511729541e-02 4.637693871169151771e-02 -1.437401424231329189e-02 2.241951070922863429e-02 -4.807248639479604069e-02 -6.438235197676436816e-02 -1.017653782723015460e-01 -1.339716150961469121e-01 1.673247911320955850e-01 2.149120483442946705e-01 -5.695527246794676590e-02 1.301990985422745405e-02 -9.127445946833988299e-02 7.867754030164579582e-02 0.000000000000000000e+00 0.000000000000000000e+00 0.000000000000000000e+00 9.978574040580620968e-16 -1.316515645299073477e-15 0.000000000000000000e+00 1.379276863673378506e-15 2.717779884612248615e-16 0.000000000000000000e+00 -4.726557514493078461e-15 4.298081171897970599e-17 -3.763563371363188866e-16 0.000000000000000000e+00 0.000000000000000000e+00 0.000000000000000000e+00 0.000000000000000000e+00 -1.808128770704569522e-16 -2.328178613506661902e-17 0.000000000000000000e+00 3.460118746269964724e-16 5.754125034967496751e-16 -4.726557514493078461e-15 4.298081171897970599e-17 -3.763563371363188866e-16 0.000000000000000000e+00 3.317496598798015389e-16 -4.645622666093235643e-16 0.000000000000000000e+00 -1.583858849891983962e-16 -2.247858855761925856e-16 0.000000000000000000e+00 -4.261465826071710990e-16 -2.409664265448023014e-16 -4.726557514493078461e-15 4.298081171897970599e-17 -3.763563371363188866e-16 0.000000000000000000e+00 0.000000000000000000e+00 0.000000000000000000e+00 0.000000000000000000e+00 5.494668888638776930e-16 -3.952910017360884744e-16 0.000000000000000000e+00 -5.314807735790793505e-16 -1.067511280814398139e-15 -4.726557514493078461e-15 4.298081171897970599e-17 -3.763563371363188866e-16 0.000000000000000000e+00 0.000000000000000000e+00 0.000000000000000000e+00 0.000000000000000000e+00 -5.009520881096873261e-16 3.474266351850769956e-16 0.000000000000000000e+00 -1.310415168476523800e-15 -5.226470302352159034e-16 -3.167462575895151067e-02 -8.463617029657891089e-02 -3.420184756055830860e-02 -3.720267343543157135e-02 9.104553741141788170e-02 -8.374747298903498227e-02 -2.960102475304674657e-02 6.310607520983491092e-02 8.640553179129892292e-02 -6.485569756540758915e-03 -2.878463716745530837e-02 1.046942275398088373e-02 0.000000000000000000e+00 0.000000000000000000e+00 0.000000000000000000e+00 1.238036142329510002e-16 -1.304791851346299317e-15 0.000000000000000000e+00 1.544114406315504450e-16 -1.068987077694045953e-15 0.000000000000000000e+00 5.336660272964331394e-16 1.172003236264895787e-15 -1.875618540731532571e-15 0.000000000000000000e+00 0.000000000000000000e+00 0.000000000000000000e+00 0.000000000000000000e+00 -4.949919937187034782e-18 -1.713122171010246358e-16 0.000000000000000000e+00 -9.926492364710398188e-16 1.590441998721417264e-17 5.336660272964331394e-16 1.172003236264895787e-15 -1.875618540731532571e-15 0.000000000000000000e+00 -1.432602298044004622e-15 -1.110589151420908808e-16 0.000000000000000000e+00 1.484942064613186344e-16 6.810966980680431250e-16 0.000000000000000000e+00 -2.376374387168697349e-16 -1.915800783785893316e-16 5.336660272964331394e-16 1.172003236264895787e-15 -1.875618540731532571e-15 0.000000000000000000e+00 0.000000000000000000e+00 0.000000000000000000e+00 0.000000000000000000e+00 -1.341228760064305900e-15 6.236042376519367230e-16 0.000000000000000000e+00 -5.270693705952488194e-16 3.651061221601186760e-16 5.336660272964331394e-16 1.172003236264895787e-15 -1.875618540731532571e-15 0.000000000000000000e+00 0.000000000000000000e+00 0.000000000000000000e+00 0.000000000000000000e+00 5.618266358711309277e-16 -8.144520469300392961e-16 0.000000000000000000e+00 -6.220247990670655048e-17 2.528760927359408076e-17
